<svg xmlns="http://www.w3.org/2000/svg" data-name="Layer 1" viewBox="0.71 5.86 30.57 21.14"><path d="M10.673473 6.888638a6.787112 6.787112 0 0 1 3.223792-.779722q3.569708 0 4.547899 3.10471a9.859916 9.859916 0 0 1 2.663098-2.20236q1.56866-.90235 3.497383-.90235 2.677291 0 3.827747 1.635997 1.150463 1.635998 1.148996 4.912229v12.333772c0 .308338.04329.517446.129757.629437.08649.111999.273596.212653.56137.293467l1.010098.335977v.754918h-5.987549q-.77971 0-1.122078-.587628-.342374-.587627-.345925-1.762161V11.902238q0-1.888343-.417495-2.685069-.417489-.796724-1.395729-.797463-1.554467 0-3.310242 1.842993a14.885577 14.885577 0 0 1 .174381 2.394443v12.333772c0 .308338.04326.517446.129712.629437.08652.111999.27361.212653.561396.293467l1.00726.335977v.754918H14.58838q-.779725 0-1.122793-.587628-.343081-.587627-.345904-1.762161V11.902238q0-1.888343-.416809-2.685069-.4168-.796724-1.396402-.797463-1.526124 0-3.137318 1.678542v14.892666c0 .308338.04253.524535.12902.649996.08647.125465.26368.231078.533037.314725l.978196.29416v.754918H.713612v-.754918l1.007257-.335977q.43168-.125472.561399-.293467c.086477-.111991.129718-.321099.129718-.629437V9.133551q0-.461483-.129719-.629483-.129717-.167992-.561398-.294165L.713612 7.874632v-.754918l6.908323-1.258886h.489097v2.936703a10.103049 10.103049 0 0 1 2.562441-1.908893Z" style="stroke-width:.07088365"/></svg>